{"title":"18+ Blood Fest 2018 UNCENSORED Movies 720p HDRip x264 5.1 ESubs ","magnet":"magnet:?xt=urn:btih:cf7c63e979e7eb10eedfe82919503c71e00d6603&dn=18%2B+Blood+Fest+2018+UNCENSORED+Movies+720p+HDRip+x264+5.1+ESubs+&tr=udp%3A%2F%2Ftracker.leechers-paradise.org%3A6969&tr=udp%3A%2F%2Fzer0day.ch%3A1337&tr=udp%3A%2F%2Fopen.demonii.com%3A1337&tr=udp%3A%2F%2Ftracker.coppersurfer.tk%3A6969&tr=udp%3A%2F%2Fexodus.desync.com%3A6969","uploader":"basicssom","categoryP":"video","categoryS":"hd___movies","size":"1022333403","seeders":"0","leechers":"0","description":"18+ Blood Fest 2018 UNCENSORED Movies 720p HDRip x264 5.1 ESubs with Sample &#x263B;rDX&#x263B;\r\n\r\nSCREEN SHOTS &amp; POSTER:\r\n   <a href=\"\nhttp://iphonehosting.eu/2018/8/a/gps/index.html\" rel=\"nofollow\" target=\"_NEW\">\nhttp://iphonehosting.eu/2018/8/a/gps/index.html</a> <a href=\"\nhttp://iphonehosting.eu/2018/8/a/gps/1.html\" rel=\"nofollow\" target=\"_NEW\">\nhttp://iphonehosting.eu/2018/8/a/gps/1.html</a> <a href=\"\nhttp://iphonehosting.eu/2018/8/a/gps/2.html\" rel=\"nofollow\" target=\"_NEW\">\nhttp://iphonehosting.eu/2018/8/a/gps/2.html</a>   <a href=\"\nhttp://iphonehosting.eu/2018/8/a/gps/3.html\" rel=\"nofollow\" target=\"_NEW\">\nhttp://iphonehosting.eu/2018/8/a/gps/3.html</a>   <a href=\"\nhttp://iphonehosting.eu/2018/8/a/gps/4.html\" rel=\"nofollow\" target=\"_NEW\">\nhttp://iphonehosting.eu/2018/8/a/gps/4.html</a>   <a href=\"\nhttp://iphonehosting.eu/2018/8/a/gps/5.html\" rel=\"nofollow\" target=\"_NEW\">\nhttp://iphonehosting.eu/2018/8/a/gps/5.html</a>   <a href=\"\nhttp://iphonehosting.eu/2018/8/a/gps/6.html\" rel=\"nofollow\" target=\"_NEW\">\nhttp://iphonehosting.eu/2018/8/a/gps/6.html</a>   <a href=\"\nhttp://iphonehosting.eu/2018/8/a/gps/7.html\" rel=\"nofollow\" target=\"_NEW\">\nhttp://iphonehosting.eu/2018/8/a/gps/7.html</a>   <a href=\"\nhttp://iphonehosting.eu/2018/8/a/gps/8.html\" rel=\"nofollow\" target=\"_NEW\">\nhttp://iphonehosting.eu/2018/8/a/gps/8.html</a>   <a href=\"\nhttp://iphonehosting.eu/2018/8/a/gps/9.html\" rel=\"nofollow\" target=\"_NEW\">\nhttp://iphonehosting.eu/2018/8/a/gps/9.html</a>   <a href=\"\nhttp://iphonehosting.eu/2018/8/a/gps/10.html\" rel=\"nofollow\" target=\"_NEW\">\nhttp://iphonehosting.eu/2018/8/a/gps/10.html</a>\r\n\r\nFile size                                : 965 MiB\r\nDuration                                 : 1 h 32 min\r\nOverall bit rate                         : 1 456 kb/s\r\nMovie name                               : 18+ Blood Fest 2018 UNCENSORED Movies 720p HDRip x264 5.1 &#x263B;rDX&#x263B;\r\n\r\nVideo\r\nID                                       : 2\r\nFormat                                   : AVC\r\nFormat/Info                              : Advanced Video Codec\r\nFormat profile                           : High@L4.1\r\nFormat settings, CABAC                   : Yes\r\nFormat settings, ReFrames                : 5 frames\r\nCodec ID                                 : V_MPEG4/ISO/AVC\r\nDuration                                 : 1 h 32 min\r\nBit rate                                 : 1 070 kb/s\r\nWidth                                    : 1 280 pixels\r\nHeight                                   : 638 pixels\r\nDisplay aspect ratio                     : 2.006\r\nFrame rate mode                          : Constant\r\nFrame rate                               : 23.976 (24000/1001) FPS\r\nColor space                              : YUV\r\nChroma subsampling                       : 4:2:0\r\nBit depth                                : 8 bits\r\nScan type                                : Progressive\r\nBits/(Pixel*Frame)                       : 0.055\r\nStream size                              : 691 MiB (72%)\r\nTitle                                    : &#x263B;rDX&#x263B;\r\nWriting library                          : x264\r\n\r\nAudio\r\nID                                       : 1\r\nFormat                                   : AC-3\r\nFormat/Info                              : Audio Coding 3\r\nMode extension                           : CM (complete main)\r\nFormat settings, Endianness              : Big\r\nCodec ID                                 : A_AC3\r\nDuration                                 : 1 h 32 min\r\nBit rate mode                            : Constant\r\nBit rate                                 : 384 kb/s\r\nChannel(s)                               : 6 channels\r\nChannel positions                        : Front: L C R, Side: L R, LFE\r\nSampling rate                            : 48.0 kHz\r\nFrame rate                               : 31.250 FPS (1536 spf)\r\nBit depth                                : 16 bits\r\nCompression mode                         : Lossy\r\nStream size                              : 255 MiB (26%)\r\nTitle                                    : &#x263B;rDX&#x263B;\r\nDefault                                  : Yes\r\nForced                                   : No\r\n\r\nText\r\nID                                       : 3\r\nFormat                                   : UTF-8\r\nCodec ID                                 : S_TEXT/UTF8\r\nCodec ID/Info                            : UTF-8 Plain Text\r\nTitle                                    : &#x263B;rDX&#x263B;\r\nLanguage                                 : English\r\nDefault                                  : Yes\r\nForced                                   : No","last_updated":"2018-08-31T12:02:33.847Z","parsed":{"xt":"urn:btih:cf7c63e979e7eb10eedfe82919503c71e00d6603","dn":"18  Blood Fest 2018 UNCENSORED Movies 720p HDRip x264 5.1 ESubs ","tr":["udp://exodus.desync.com:6969","udp://open.demonii.com:1337","udp://tracker.coppersurfer.tk:6969","udp://tracker.leechers-paradise.org:6969","udp://zer0day.ch:1337"],"infoHash":"cf7c63e979e7eb10eedfe82919503c71e00d6603","infoHashBuffer":{"type":"Buffer","data":[207,124,99,233,121,231,235,16,238,223,232,41,25,80,60,113,224,13,102,3]},"name":"18  Blood Fest 2018 UNCENSORED Movies 720p HDRip x264 5.1 ESubs ","announce":["udp://exodus.desync.com:6969","udp://open.demonii.com:1337","udp://tracker.coppersurfer.tk:6969","udp://tracker.leechers-paradise.org:6969","udp://zer0day.ch:1337"],"urlList":[]}}